<?xml version="1.0" encoding="UTF-8" standalone="no"?><svg xmlns="http://www.w3.org/2000/svg" xmlns:xlink="http://www.w3.org/1999/xlink" contentScriptType="application/ecmascript" contentStyleType="text/css" height="519px" preserveAspectRatio="none" style="width:302px;height:519px;" version="1.1" viewBox="0 0 302 519" width="302px" zoomAndPan="magnify"><defs><filter height="300%" id="f1bsqjtwjez9e9" width="300%" x="-1" y="-1"><feGaussianBlur result="blurOut" stdDeviation="2.0"/><feColorMatrix in="blurOut" result="blurOut2" type="matrix" values="0 0 0 0 0 0 0 0 0 0 0 0 0 0 0 0 0 0 .4 0"/><feOffset dx="4.0" dy="4.0" in="blurOut2" result="blurOut3"/><feBlend in="SourceGraphic" in2="blurOut3" mode="normal"/></filter></defs><g><text fill="#000000" font-family="sans-serif" font-size="18" lengthAdjust="spacingAndGlyphs" textLength="186" x="57" y="26.708">"Merging Propreties"</text><ellipse cx="144" cy="40.9531" fill="#000000" filter="url(#f1bsqjtwjez9e9)" rx="10" ry="10" style="stroke: none; stroke-width: 1.0;"/><rect fill="#FEFECE" filter="url(#f1bsqjtwjez9e9)" height="47.9375" rx="12.5" ry="12.5" style="stroke: #A80036; stroke-width: 1.5;" width="196" x="46" y="163.3555"/><text fill="#000000" font-family="sans-serif" font-size="12" lengthAdjust="spacingAndGlyphs" textLength="176" x="56" y="184.4941">Add property with new value</text><text fill="#000000" font-family="sans-serif" font-size="12" lengthAdjust="spacingAndGlyphs" textLength="110" x="56" y="198.4629">to merge product</text><polygon fill="#FEFECE" filter="url(#f1bsqjtwjez9e9)" points="115.5,114.9531,172.5,114.9531,184.5,126.9531,172.5,138.9531,115.5,138.9531,103.5,126.9531,115.5,114.9531" style="stroke: #A80036; stroke-width: 1.5;"/><text fill="#000000" font-family="sans-serif" font-size="11" lengthAdjust="spacingAndGlyphs" textLength="42" x="148" y="149.1636">not null</text><text fill="#000000" font-family="sans-serif" font-size="11" lengthAdjust="spacingAndGlyphs" textLength="57" x="115.5" y="130.7612">new value</text><text fill="#000000" font-family="sans-serif" font-size="11" lengthAdjust="spacingAndGlyphs" textLength="20" x="184.5" y="124.3589">null</text><polygon fill="#FEFECE" filter="url(#f1bsqjtwjez9e9)" points="144,231.293,156,243.293,144,255.293,132,243.293,144,231.293" style="stroke: #A80036; stroke-width: 1.5;"/><polygon fill="#FEFECE" filter="url(#f1bsqjtwjez9e9)" points="92.5,70.9531,195.5,70.9531,207.5,82.9531,195.5,94.9531,92.5,94.9531,80.5,82.9531,92.5,70.9531" style="stroke: #A80036; stroke-width: 1.5;"/><text fill="#000000" font-family="sans-serif" font-size="11" lengthAdjust="spacingAndGlyphs" textLength="103" x="92.5" y="86.7612">next new property</text><rect fill="#FEFECE" filter="url(#f1bsqjtwjez9e9)" height="47.9375" rx="12.5" ry="12.5" style="stroke: #A80036; stroke-width: 1.5;" width="190" x="49" y="393.6953"/><text fill="#000000" font-family="sans-serif" font-size="12" lengthAdjust="spacingAndGlyphs" textLength="170" x="59" y="414.834">Add property with old value</text><text fill="#000000" font-family="sans-serif" font-size="12" lengthAdjust="spacingAndGlyphs" textLength="110" x="59" y="428.8027">to merge product</text><polygon fill="#FEFECE" filter="url(#f1bsqjtwjez9e9)" points="68.5,345.293,219.5,345.293,231.5,357.293,219.5,369.293,68.5,369.293,56.5,357.293,68.5,345.293" style="stroke: #A80036; stroke-width: 1.5;"/><text fill="#000000" font-family="sans-serif" font-size="11" lengthAdjust="spacingAndGlyphs" textLength="53" x="148" y="379.5034">no match</text><text fill="#000000" font-family="sans-serif" font-size="11" lengthAdjust="spacingAndGlyphs" textLength="151" x="68.5" y="361.1011">key matches new property</text><text fill="#000000" font-family="sans-serif" font-size="11" lengthAdjust="spacingAndGlyphs" textLength="32" x="231.5" y="341.894">found</text><text fill="#000000" font-family="sans-serif" font-size="11" lengthAdjust="spacingAndGlyphs" textLength="35" x="231.5" y="354.6987">match</text><polygon fill="#FEFECE" filter="url(#f1bsqjtwjez9e9)" points="144,461.6328,156,473.6328,144,485.6328,132,473.6328,144,461.6328" style="stroke: #A80036; stroke-width: 1.5;"/><polygon fill="#FEFECE" filter="url(#f1bsqjtwjez9e9)" points="95.5,297.293,192.5,297.293,204.5,309.293,192.5,321.293,95.5,321.293,83.5,309.293,95.5,297.293" style="stroke: #A80036; stroke-width: 1.5;"/><text fill="#000000" font-family="sans-serif" font-size="11" lengthAdjust="spacingAndGlyphs" textLength="97" x="95.5" y="313.1011">next old property</text><ellipse cx="24" cy="356.293" fill="#FFFFFF" filter="url(#f1bsqjtwjez9e9)" rx="11" ry="11" style="stroke: #000000; stroke-width: 1.0;"/><ellipse cx="24" cy="356.293" fill="#000000" rx="6" ry="6" style="stroke: #7F7F7F; stroke-width: 1.0;"/><line style="stroke: #A80036; stroke-width: 1.5;" x1="144" x2="144" y1="138.9531" y2="163.3555"/><polygon fill="#A80036" points="140,153.3555,144,163.3555,148,153.3555,144,157.3555" style="stroke: #A80036; stroke-width: 1.0;"/><line style="stroke: #A80036; stroke-width: 1.5;" x1="184.5" x2="252" y1="126.9531" y2="126.9531"/><polygon fill="#A80036" points="248,177.3242,252,187.3242,256,177.3242,252,181.3242" style="stroke: #A80036; stroke-width: 1.5;"/><line style="stroke: #A80036; stroke-width: 1.5;" x1="252" x2="252" y1="126.9531" y2="243.293"/><line style="stroke: #A80036; stroke-width: 1.5;" x1="252" x2="156" y1="243.293" y2="243.293"/><polygon fill="#A80036" points="166,239.293,156,243.293,166,247.293,162,243.293" style="stroke: #A80036; stroke-width: 1.0;"/><line style="stroke: #A80036; stroke-width: 1.5;" x1="144" x2="144" y1="211.293" y2="231.293"/><polygon fill="#A80036" points="140,221.293,144,231.293,148,221.293,144,225.293" style="stroke: #A80036; stroke-width: 1.0;"/><line style="stroke: #A80036; stroke-width: 1.5;" x1="144" x2="144" y1="94.9531" y2="114.9531"/><polygon fill="#A80036" points="140,104.9531,144,114.9531,148,104.9531,144,108.9531" style="stroke: #A80036; stroke-width: 1.0;"/><line style="stroke: #A80036; stroke-width: 1.5;" x1="144" x2="144" y1="255.293" y2="265.293"/><line style="stroke: #A80036; stroke-width: 1.5;" x1="144" x2="276" y1="265.293" y2="265.293"/><polygon fill="#A80036" points="272,185.3242,276,175.3242,280,185.3242,276,181.3242" style="stroke: #A80036; stroke-width: 1.5;"/><line style="stroke: #A80036; stroke-width: 1.5;" x1="276" x2="276" y1="82.9531" y2="265.293"/><line style="stroke: #A80036; stroke-width: 1.5;" x1="276" x2="207.5" y1="82.9531" y2="82.9531"/><polygon fill="#A80036" points="217.5,78.9531,207.5,82.9531,217.5,86.9531,213.5,82.9531" style="stroke: #A80036; stroke-width: 1.0;"/><line style="stroke: #A80036; stroke-width: 1.5;" x1="80.5" x2="32" y1="82.9531" y2="82.9531"/><polygon fill="#A80036" points="28,171.3242,32,181.3242,36,171.3242,32,175.3242" style="stroke: #A80036; stroke-width: 1.5;"/><line style="stroke: #A80036; stroke-width: 1.5;" x1="32" x2="32" y1="82.9531" y2="277.293"/><line style="stroke: #A80036; stroke-width: 1.5;" x1="32" x2="144" y1="277.293" y2="277.293"/><line style="stroke: #A80036; stroke-width: 1.5;" x1="144" x2="144" y1="277.293" y2="297.293"/><polygon fill="#A80036" points="140,287.293,144,297.293,148,287.293,144,291.293" style="stroke: #A80036; stroke-width: 1.0;"/><line style="stroke: #A80036; stroke-width: 1.5;" x1="144" x2="144" y1="50.9531" y2="70.9531"/><polygon fill="#A80036" points="140,60.9531,144,70.9531,148,60.9531,144,64.9531" style="stroke: #A80036; stroke-width: 1.0;"/><line style="stroke: #A80036; stroke-width: 1.5;" x1="144" x2="144" y1="369.293" y2="393.6953"/><polygon fill="#A80036" points="140,383.6953,144,393.6953,148,383.6953,144,387.6953" style="stroke: #A80036; stroke-width: 1.0;"/><line style="stroke: #A80036; stroke-width: 1.5;" x1="231.5" x2="249" y1="357.293" y2="357.293"/><polygon fill="#A80036" points="245,407.6641,249,417.6641,253,407.6641,249,411.6641" style="stroke: #A80036; stroke-width: 1.5;"/><line style="stroke: #A80036; stroke-width: 1.5;" x1="249" x2="249" y1="357.293" y2="473.6328"/><line style="stroke: #A80036; stroke-width: 1.5;" x1="249" x2="156" y1="473.6328" y2="473.6328"/><polygon fill="#A80036" points="166,469.6328,156,473.6328,166,477.6328,162,473.6328" style="stroke: #A80036; stroke-width: 1.0;"/><line style="stroke: #A80036; stroke-width: 1.5;" x1="144" x2="144" y1="441.6328" y2="461.6328"/><polygon fill="#A80036" points="140,451.6328,144,461.6328,148,451.6328,144,455.6328" style="stroke: #A80036; stroke-width: 1.0;"/><line style="stroke: #A80036; stroke-width: 1.5;" x1="144" x2="144" y1="321.293" y2="345.293"/><polygon fill="#A80036" points="140,335.293,144,345.293,148,335.293,144,339.293" style="stroke: #A80036; stroke-width: 1.0;"/><line style="stroke: #A80036; stroke-width: 1.5;" x1="144" x2="144" y1="485.6328" y2="495.6328"/><line style="stroke: #A80036; stroke-width: 1.5;" x1="144" x2="273" y1="495.6328" y2="495.6328"/><polygon fill="#A80036" points="269,415.6641,273,405.6641,277,415.6641,273,411.6641" style="stroke: #A80036; stroke-width: 1.5;"/><line style="stroke: #A80036; stroke-width: 1.5;" x1="273" x2="273" y1="309.293" y2="495.6328"/><line style="stroke: #A80036; stroke-width: 1.5;" x1="273" x2="204.5" y1="309.293" y2="309.293"/><polygon fill="#A80036" points="214.5,305.293,204.5,309.293,214.5,313.293,210.5,309.293" style="stroke: #A80036; stroke-width: 1.0;"/><line style="stroke: #A80036; stroke-width: 1.5;" x1="83.5" x2="24" y1="309.293" y2="309.293"/><line style="stroke: #A80036; stroke-width: 1.5;" x1="24" x2="24" y1="309.293" y2="345.293"/><polygon fill="#A80036" points="20,335.293,24,345.293,28,335.293,24,339.293" style="stroke: #A80036; stroke-width: 1.0;"/><!--MD5=[61ae35f96b28257f51223e65c41686f6]
@startuml
title "Merging Propreties"

start

while (next new property)
    if (new value) then (null)
    else (not null)
        :Add property with new value
        to merge product;
    endif
endwhile

while (next old property)
    if (key matches new property) then (found\nmatch)
    else (no match)
        :Add property with old value
        to merge product;
    endif
endwhile

stop
@enduml

PlantUML version 1.2020.02(Sun Mar 01 11:22:07 CET 2020)
(GPL source distribution)
Java Runtime: OpenJDK Runtime Environment
JVM: OpenJDK 64-Bit Server VM
Java Version: 11.0.18+10-post-Ubuntu-0ubuntu5
Operating System: Linux
Default Encoding: UTF-8
Language: en
Country: US
--></g></svg>