<?xml version="1.0" encoding="UTF-8" standalone="no"?><svg xmlns="http://www.w3.org/2000/svg" xmlns:xlink="http://www.w3.org/1999/xlink" contentScriptType="application/ecmascript" contentStyleType="text/css" height="429px" preserveAspectRatio="none" style="width:505px;height:429px;" version="1.1" viewBox="0 0 505 429" width="505px" zoomAndPan="magnify"><defs/><g><text fill="#000000" font-family="Calibri" font-size="18" lengthAdjust="spacingAndGlyphs" textLength="150" x="178" y="28.708">Initialize Logging</text><rect fill="#FFFFFF" height="305.4063" style="stroke: #A80036; stroke-width: 1.0;" width="10" x="94" y="103.5469"/><rect fill="#FFFFFF" height="30" style="stroke: #A80036; stroke-width: 1.0;" width="10" x="420" y="128.6797"/><rect fill="#FFFFFF" height="30" style="stroke: #A80036; stroke-width: 1.0;" width="10" x="420" y="221.75"/><rect fill="#FFFFFF" height="30" style="stroke: #A80036; stroke-width: 1.0;" width="10" x="420" y="321.8203"/><rect fill="#FFFFFF" height="86.0703" style="stroke: #000000; stroke-width: 2.0;" width="468" x="13" y="173.6797"/><rect fill="#FFFFFF" height="127.2031" style="stroke: #000000; stroke-width: 2.0;" width="480" x="13" y="273.75"/><rect fill="#FFFFFF" height="41.1328" style="stroke: none; stroke-width: 1.0;" width="480" x="13" y="359.8203"/><line style="stroke: #A80036; stroke-width: 1.0; stroke-dasharray: 5.0,5.0;" x1="99" x2="99" y1="93.5469" y2="417.9531"/><line style="stroke: #A80036; stroke-width: 1.0; stroke-dasharray: 5.0,5.0;" x1="425" x2="425" y1="93.5469" y2="417.9531"/><rect fill="#FEFECE" height="34.2969" style="stroke: #A80036; stroke-width: 1.5;" width="152" x="23" y="58.25"/><text fill="#000000" font-family="Calibri" font-size="14" lengthAdjust="spacingAndGlyphs" textLength="134" x="32" y="80.2451">RequestDispatcher</text><rect fill="#FEFECE" height="50.5938" style="stroke: #A80036; stroke-width: 1.5;" width="92" x="379" y="41.9531"/><text fill="#000000" font-family="Calibri" font-size="14" font-style="italic" lengthAdjust="spacingAndGlyphs" textLength="74" x="388" y="63.9482">«external»</text><text fill="#000000" font-family="Calibri" font-size="14" lengthAdjust="spacingAndGlyphs" textLength="21" x="414.5" y="80.2451">log</text><rect fill="#FFFFFF" height="305.4063" style="stroke: #A80036; stroke-width: 1.0;" width="10" x="94" y="103.5469"/><rect fill="#FFFFFF" height="30" style="stroke: #A80036; stroke-width: 1.0;" width="10" x="420" y="128.6797"/><rect fill="#FFFFFF" height="30" style="stroke: #A80036; stroke-width: 1.0;" width="10" x="420" y="221.75"/><rect fill="#FFFFFF" height="30" style="stroke: #A80036; stroke-width: 1.0;" width="10" x="420" y="321.8203"/><polygon fill="#A80036" points="408,124.6797,418,128.6797,408,132.6797" style="stroke: #A80036; stroke-width: 1.0;"/><line style="stroke: #A80036; stroke-width: 1.0;" x1="104" x2="414" y1="128.6797" y2="128.6797"/><text fill="#000000" font-family="Calibri" font-size="13" lengthAdjust="spacingAndGlyphs" textLength="293" x="113" y="121.6138">set_client_name(adapter_name_and_version)</text><path d="M13,173.6797 L81,173.6797 L81,184.6797 L71,194.6797 L13,194.6797 L13,173.6797 " fill="#EEEEEE" style="stroke: #000000; stroke-width: 1.0;"/><rect fill="none" height="86.0703" style="stroke: #000000; stroke-width: 2.0;" width="468" x="13" y="173.6797"/><text fill="#000000" font-family="Calibri" font-size="13" font-weight="bold" lengthAdjust="spacingAndGlyphs" textLength="19" x="30" y="188.7466">alt</text><text fill="#000000" font-family="Calibri" font-size="11" font-weight="bold" lengthAdjust="spacingAndGlyphs" textLength="89" x="98" y="187.8901">[log level set]</text><polygon fill="#A80036" points="408,217.75,418,221.75,408,225.75" style="stroke: #A80036; stroke-width: 1.0;"/><line style="stroke: #A80036; stroke-width: 1.0;" x1="104" x2="414" y1="221.75" y2="221.75"/><text fill="#000000" font-family="Calibri" font-size="13" lengthAdjust="spacingAndGlyphs" textLength="121" x="113" y="214.6841">set_log_level(level)</text><path d="M13,273.75 L81,273.75 L81,284.75 L71,294.75 L13,294.75 L13,273.75 " fill="#EEEEEE" style="stroke: #000000; stroke-width: 1.0;"/><rect fill="none" height="127.2031" style="stroke: #000000; stroke-width: 2.0;" width="480" x="13" y="273.75"/><text fill="#000000" font-family="Calibri" font-size="13" font-weight="bold" lengthAdjust="spacingAndGlyphs" textLength="19" x="30" y="288.8169">alt</text><text fill="#000000" font-family="Calibri" font-size="11" font-weight="bold" lengthAdjust="spacingAndGlyphs" textLength="86" x="98" y="287.9604">[log host set]</text><polygon fill="#A80036" points="408,317.8203,418,321.8203,408,325.8203" style="stroke: #A80036; stroke-width: 1.0;"/><line style="stroke: #A80036; stroke-width: 1.0;" x1="104" x2="414" y1="321.8203" y2="321.8203"/><text fill="#000000" font-family="Calibri" font-size="13" lengthAdjust="spacingAndGlyphs" textLength="123" x="113" y="314.7544">connect(host, port)</text><line style="stroke: #000000; stroke-width: 1.0; stroke-dasharray: 2.0,2.0;" x1="13" x2="493" y1="360.8203" y2="360.8203"/><path d="M40,366.8203 L40,395.8203 L483,395.8203 L483,376.8203 L473,366.8203 L40,366.8203 " fill="#FBFB77" style="stroke: #A80036; stroke-width: 1.0;"/><path d="M473,366.8203 L473,376.8203 L483,376.8203 L473,366.8203 " fill="#FBFB77" style="stroke: #A80036; stroke-width: 1.0;"/><text fill="#000000" font-family="Calibri" font-size="13" lengthAdjust="spacingAndGlyphs" textLength="141" x="186.5" y="385.8872">console logging active</text><!--MD5=[7a136bc0a9c63fe3e0e44a5fc759f4b4]
@startuml
hide empty methods
hide empty attributes
skinparam style strictuml
skinparam classAttributeIconSize 0
!pragma horizontalLineBetweenDifferentPackageAllowed

skinparam defaultFontName Calibri

skinparam padding 2

title Initialize Logging

participant RequestDispatcher
participant log <<external>>

activate RequestDispatcher

RequestDispatcher -> log : set_client_name(adapter_name_and_version)
activate log
deactivate log

alt log level set
    RequestDispatcher -> log : set_log_level(level)
    activate log
    deactivate log
end

alt log host set
    RequestDispatcher -> log : connect(host, port)
    activate log
    deactivate log
else
    note over RequestDispatcher, log : console logging active 
end

@enduml

PlantUML version 1.2020.02(Sun Mar 01 11:22:07 CET 2020)
(GPL source distribution)
Java Runtime: OpenJDK Runtime Environment
JVM: OpenJDK 64-Bit Server VM
Java Version: 11.0.18+10-post-Ubuntu-0ubuntu5
Operating System: Linux
Default Encoding: UTF-8
Language: en
Country: US
--></g></svg>