<?xml version="1.0" encoding="UTF-8" standalone="no"?><svg xmlns="http://www.w3.org/2000/svg" xmlns:xlink="http://www.w3.org/1999/xlink" contentScriptType="application/ecmascript" contentStyleType="text/css" height="1059px" preserveAspectRatio="none" style="width:1095px;height:1059px;" version="1.1" viewBox="0 0 1095 1059" width="1095px" zoomAndPan="magnify"><defs/><g><text fill="#000000" font-family="Calibri" font-size="18" lengthAdjust="spacingAndGlyphs" textLength="153" x="469.5" y="28.708">Dispatch Request</text><rect fill="#FFFFFF" height="584.2891" style="stroke: #FFFFFF; stroke-width: 1.0;" width="10" x="64" y="103.5469"/><line style="stroke: #A80036; stroke-width: 1.0;" x1="64" x2="64" y1="103.5469" y2="687.8359"/><line style="stroke: #A80036; stroke-width: 1.0;" x1="74" x2="74" y1="103.5469" y2="687.8359"/><line style="stroke: #A80036; stroke-width: 1.0;" x1="64" x2="74" y1="103.5469" y2="103.5469"/><rect fill="#FFFFFF" height="318.6719" style="stroke: #FFFFFF; stroke-width: 1.0;" width="10" x="64" y="719.8359"/><line style="stroke: #A80036; stroke-width: 1.0;" x1="64" x2="64" y1="719.8359" y2="1038.5078"/><line style="stroke: #A80036; stroke-width: 1.0;" x1="74" x2="74" y1="719.8359" y2="1038.5078"/><line style="stroke: #A80036; stroke-width: 1.0;" x1="64" x2="74" y1="1038.5078" y2="1038.5078"/><rect fill="#FFFFFF" height="559.1563" style="stroke: #FFFFFF; stroke-width: 1.0;" width="10" x="322" y="128.6797"/><line style="stroke: #A80036; stroke-width: 1.0;" x1="322" x2="322" y1="128.6797" y2="687.8359"/><line style="stroke: #A80036; stroke-width: 1.0;" x1="332" x2="332" y1="128.6797" y2="687.8359"/><line style="stroke: #A80036; stroke-width: 1.0;" x1="322" x2="332" y1="128.6797" y2="128.6797"/><rect fill="#FFFFFF" height="317.6719" style="stroke: #FFFFFF; stroke-width: 1.0;" width="10" x="322" y="719.8359"/><line style="stroke: #A80036; stroke-width: 1.0;" x1="322" x2="322" y1="719.8359" y2="1037.5078"/><line style="stroke: #A80036; stroke-width: 1.0;" x1="332" x2="332" y1="719.8359" y2="1037.5078"/><line style="stroke: #A80036; stroke-width: 1.0;" x1="322" x2="332" y1="1037.5078" y2="1037.5078"/><rect fill="#FFFFFF" height="256.9297" style="stroke: #FFFFFF; stroke-width: 1.0;" width="10" x="327" y="430.9063"/><line style="stroke: #A80036; stroke-width: 1.0;" x1="327" x2="327" y1="430.9063" y2="687.8359"/><line style="stroke: #A80036; stroke-width: 1.0;" x1="337" x2="337" y1="430.9063" y2="687.8359"/><line style="stroke: #A80036; stroke-width: 1.0;" x1="327" x2="337" y1="430.9063" y2="430.9063"/><rect fill="#FFFFFF" height="154.5313" style="stroke: #FFFFFF; stroke-width: 1.0;" width="10" x="327" y="719.8359"/><line style="stroke: #A80036; stroke-width: 1.0;" x1="327" x2="327" y1="719.8359" y2="874.3672"/><line style="stroke: #A80036; stroke-width: 1.0;" x1="337" x2="337" y1="719.8359" y2="874.3672"/><line style="stroke: #A80036; stroke-width: 1.0;" x1="327" x2="337" y1="874.3672" y2="874.3672"/><rect fill="#FFFFFF" height="190.6641" style="stroke: #FFFFFF; stroke-width: 1.0;" width="10" x="637" y="497.1719"/><line style="stroke: #A80036; stroke-width: 1.0;" x1="637" x2="637" y1="497.1719" y2="687.8359"/><line style="stroke: #A80036; stroke-width: 1.0;" x1="647" x2="647" y1="497.1719" y2="687.8359"/><line style="stroke: #A80036; stroke-width: 1.0;" x1="637" x2="647" y1="497.1719" y2="497.1719"/><rect fill="#FFFFFF" height="25.1328" style="stroke: #FFFFFF; stroke-width: 1.0;" width="10" x="637" y="719.8359"/><line style="stroke: #A80036; stroke-width: 1.0;" x1="637" x2="637" y1="719.8359" y2="744.9688"/><line style="stroke: #A80036; stroke-width: 1.0;" x1="647" x2="647" y1="719.8359" y2="744.9688"/><line style="stroke: #A80036; stroke-width: 1.0;" x1="637" x2="647" y1="744.9688" y2="744.9688"/><rect fill="#FFFFFF" height="30" style="stroke: #A80036; stroke-width: 1.0;" width="10" x="778" y="359.7734"/><rect fill="#FFFFFF" height="30" style="stroke: #A80036; stroke-width: 1.0;" width="10" x="778" y="844.3672"/><rect fill="#FFFFFF" height="33.1328" style="stroke: #A80036; stroke-width: 1.0;" width="10" x="880" y="161.8125"/><rect fill="#FFFFFF" height="33.1328" style="stroke: #A80036; stroke-width: 1.0;" width="10" x="880" y="778.1016"/><rect fill="#FFFFFF" height="35.2969" style="stroke: #A80036; stroke-width: 1.0;" width="10" x="1007.5" y="238.0781"/><rect fill="#FFFFFF" height="229.9297" style="stroke: #000000; stroke-width: 2.0;" width="496" x="241" y="450.9063"/><rect fill="#FFFFFF" height="35.1328" style="stroke: none; stroke-width: 1.0;" width="496" x="241" y="505.1719"/><rect fill="#FFFFFF" height="35.1328" style="stroke: none; stroke-width: 1.0;" width="496" x="241" y="540.3047"/><rect fill="#FFFFFF" height="35.1328" style="stroke: none; stroke-width: 1.0;" width="496" x="241" y="575.4375"/><rect fill="#FFFFFF" height="35.1328" style="stroke: none; stroke-width: 1.0;" width="496" x="241" y="610.5703"/><rect fill="#FFFFFF" height="35.1328" style="stroke: none; stroke-width: 1.0;" width="496" x="241" y="645.7031"/><rect fill="#FFFFFF" height="108.0078" style="stroke: #000000; stroke-width: 2.0;" width="400" x="13" y="922.5"/><rect fill="#FFFFFF" height="51.9375" style="stroke: none; stroke-width: 1.0;" width="400" x="13" y="978.5703"/><line style="stroke: #A80036; stroke-width: 1.0;" x1="69" x2="69" y1="93.5469" y2="687.8359"/><line style="stroke: #A80036; stroke-width: 1.0; stroke-dasharray: 1.0,4.0;" x1="69" x2="69" y1="687.8359" y2="719.8359"/><line style="stroke: #A80036; stroke-width: 1.0;" x1="69" x2="69" y1="719.8359" y2="1047.5078"/><line style="stroke: #A80036; stroke-width: 1.0;" x1="327" x2="327" y1="93.5469" y2="687.8359"/><line style="stroke: #A80036; stroke-width: 1.0; stroke-dasharray: 1.0,4.0;" x1="327" x2="327" y1="687.8359" y2="719.8359"/><line style="stroke: #A80036; stroke-width: 1.0;" x1="327" x2="327" y1="719.8359" y2="1047.5078"/><line style="stroke: #A80036; stroke-width: 1.0;" x1="642" x2="642" y1="93.5469" y2="687.8359"/><line style="stroke: #A80036; stroke-width: 1.0; stroke-dasharray: 1.0,4.0;" x1="642" x2="642" y1="687.8359" y2="719.8359"/><line style="stroke: #A80036; stroke-width: 1.0;" x1="642" x2="642" y1="719.8359" y2="1047.5078"/><line style="stroke: #A80036; stroke-width: 1.0;" x1="783" x2="783" y1="93.5469" y2="687.8359"/><line style="stroke: #A80036; stroke-width: 1.0; stroke-dasharray: 1.0,4.0;" x1="783" x2="783" y1="687.8359" y2="719.8359"/><line style="stroke: #A80036; stroke-width: 1.0;" x1="783" x2="783" y1="719.8359" y2="1047.5078"/><line style="stroke: #A80036; stroke-width: 1.0;" x1="885" x2="885" y1="93.5469" y2="687.8359"/><line style="stroke: #A80036; stroke-width: 1.0; stroke-dasharray: 1.0,4.0;" x1="885" x2="885" y1="687.8359" y2="719.8359"/><line style="stroke: #A80036; stroke-width: 1.0;" x1="885" x2="885" y1="719.8359" y2="1047.5078"/><line style="stroke: #A80036; stroke-width: 1.0;" x1="1012" x2="1012" y1="235.5938" y2="687.8359"/><line style="stroke: #A80036; stroke-width: 1.0; stroke-dasharray: 1.0,4.0;" x1="1012" x2="1012" y1="687.8359" y2="719.8359"/><line style="stroke: #A80036; stroke-width: 1.0;" x1="1012" x2="1012" y1="719.8359" y2="1047.5078"/><rect fill="#FEFECE" height="50.5938" style="stroke: #A80036; stroke-width: 1.5;" width="92" x="23" y="41.9531"/><text fill="#000000" font-family="Calibri" font-size="14" font-style="italic" lengthAdjust="spacingAndGlyphs" textLength="74" x="32" y="63.9482">«external»</text><text fill="#000000" font-family="Calibri" font-size="14" lengthAdjust="spacingAndGlyphs" textLength="35" x="51.5" y="80.2451">entry</text><rect fill="#FEFECE" height="34.2969" style="stroke: #A80036; stroke-width: 1.5;" width="152" x="251" y="58.25"/><text fill="#000000" font-family="Calibri" font-size="14" lengthAdjust="spacingAndGlyphs" textLength="134" x="260" y="80.2451">RequestDispatcher</text><rect fill="#FEFECE" height="50.5938" style="stroke: #A80036; stroke-width: 1.5;" width="170" x="557" y="41.9531"/><text fill="#000000" font-family="Calibri" font-size="14" font-style="italic" lengthAdjust="spacingAndGlyphs" textLength="74" x="605" y="63.9482">«external»</text><text fill="#000000" font-family="Calibri" font-size="14" lengthAdjust="spacingAndGlyphs" textLength="152" x="566" y="80.2451">VirtualSchemaAdapter</text><rect fill="#FEFECE" height="50.5938" style="stroke: #A80036; stroke-width: 1.5;" width="92" x="737" y="41.9531"/><text fill="#000000" font-family="Calibri" font-size="14" font-style="italic" lengthAdjust="spacingAndGlyphs" textLength="74" x="746" y="63.9482">«external»</text><text fill="#000000" font-family="Calibri" font-size="14" lengthAdjust="spacingAndGlyphs" textLength="21" x="772.5" y="80.2451">log</text><rect fill="#FEFECE" height="50.5938" style="stroke: #A80036; stroke-width: 1.5;" width="92" x="839" y="41.9531"/><text fill="#000000" font-family="Calibri" font-size="14" font-style="italic" lengthAdjust="spacingAndGlyphs" textLength="74" x="848" y="63.9482">«external»</text><text fill="#000000" font-family="Calibri" font-size="14" lengthAdjust="spacingAndGlyphs" textLength="37" x="866.5" y="80.2451">cjson</text><rect fill="#FFFFFF" height="584.2891" style="stroke: #FFFFFF; stroke-width: 1.0;" width="10" x="64" y="103.5469"/><line style="stroke: #A80036; stroke-width: 1.0;" x1="64" x2="64" y1="103.5469" y2="687.8359"/><line style="stroke: #A80036; stroke-width: 1.0;" x1="74" x2="74" y1="103.5469" y2="687.8359"/><line style="stroke: #A80036; stroke-width: 1.0;" x1="64" x2="74" y1="103.5469" y2="103.5469"/><rect fill="#FFFFFF" height="318.6719" style="stroke: #FFFFFF; stroke-width: 1.0;" width="10" x="64" y="719.8359"/><line style="stroke: #A80036; stroke-width: 1.0;" x1="64" x2="64" y1="719.8359" y2="1038.5078"/><line style="stroke: #A80036; stroke-width: 1.0;" x1="74" x2="74" y1="719.8359" y2="1038.5078"/><line style="stroke: #A80036; stroke-width: 1.0;" x1="64" x2="74" y1="1038.5078" y2="1038.5078"/><rect fill="#FFFFFF" height="559.1563" style="stroke: #FFFFFF; stroke-width: 1.0;" width="10" x="322" y="128.6797"/><line style="stroke: #A80036; stroke-width: 1.0;" x1="322" x2="322" y1="128.6797" y2="687.8359"/><line style="stroke: #A80036; stroke-width: 1.0;" x1="332" x2="332" y1="128.6797" y2="687.8359"/><line style="stroke: #A80036; stroke-width: 1.0;" x1="322" x2="332" y1="128.6797" y2="128.6797"/><rect fill="#FFFFFF" height="317.6719" style="stroke: #FFFFFF; stroke-width: 1.0;" width="10" x="322" y="719.8359"/><line style="stroke: #A80036; stroke-width: 1.0;" x1="322" x2="322" y1="719.8359" y2="1037.5078"/><line style="stroke: #A80036; stroke-width: 1.0;" x1="332" x2="332" y1="719.8359" y2="1037.5078"/><line style="stroke: #A80036; stroke-width: 1.0;" x1="322" x2="332" y1="1037.5078" y2="1037.5078"/><rect fill="#FFFFFF" height="256.9297" style="stroke: #FFFFFF; stroke-width: 1.0;" width="10" x="327" y="430.9063"/><line style="stroke: #A80036; stroke-width: 1.0;" x1="327" x2="327" y1="430.9063" y2="687.8359"/><line style="stroke: #A80036; stroke-width: 1.0;" x1="337" x2="337" y1="430.9063" y2="687.8359"/><line style="stroke: #A80036; stroke-width: 1.0;" x1="327" x2="337" y1="430.9063" y2="430.9063"/><rect fill="#FFFFFF" height="154.5313" style="stroke: #FFFFFF; stroke-width: 1.0;" width="10" x="327" y="719.8359"/><line style="stroke: #A80036; stroke-width: 1.0;" x1="327" x2="327" y1="719.8359" y2="874.3672"/><line style="stroke: #A80036; stroke-width: 1.0;" x1="337" x2="337" y1="719.8359" y2="874.3672"/><line style="stroke: #A80036; stroke-width: 1.0;" x1="327" x2="337" y1="874.3672" y2="874.3672"/><rect fill="#FFFFFF" height="190.6641" style="stroke: #FFFFFF; stroke-width: 1.0;" width="10" x="637" y="497.1719"/><line style="stroke: #A80036; stroke-width: 1.0;" x1="637" x2="637" y1="497.1719" y2="687.8359"/><line style="stroke: #A80036; stroke-width: 1.0;" x1="647" x2="647" y1="497.1719" y2="687.8359"/><line style="stroke: #A80036; stroke-width: 1.0;" x1="637" x2="647" y1="497.1719" y2="497.1719"/><rect fill="#FFFFFF" height="25.1328" style="stroke: #FFFFFF; stroke-width: 1.0;" width="10" x="637" y="719.8359"/><line style="stroke: #A80036; stroke-width: 1.0;" x1="637" x2="637" y1="719.8359" y2="744.9688"/><line style="stroke: #A80036; stroke-width: 1.0;" x1="647" x2="647" y1="719.8359" y2="744.9688"/><line style="stroke: #A80036; stroke-width: 1.0;" x1="637" x2="647" y1="744.9688" y2="744.9688"/><rect fill="#FFFFFF" height="30" style="stroke: #A80036; stroke-width: 1.0;" width="10" x="778" y="359.7734"/><rect fill="#FFFFFF" height="30" style="stroke: #A80036; stroke-width: 1.0;" width="10" x="778" y="844.3672"/><rect fill="#FFFFFF" height="33.1328" style="stroke: #A80036; stroke-width: 1.0;" width="10" x="880" y="161.8125"/><rect fill="#FFFFFF" height="33.1328" style="stroke: #A80036; stroke-width: 1.0;" width="10" x="880" y="778.1016"/><rect fill="#FFFFFF" height="35.2969" style="stroke: #A80036; stroke-width: 1.0;" width="10" x="1007.5" y="238.0781"/><polygon fill="#A80036" points="310,124.6797,320,128.6797,310,132.6797" style="stroke: #A80036; stroke-width: 1.0;"/><line style="stroke: #A80036; stroke-width: 1.0; stroke-dasharray: 2.0,2.0;" x1="74" x2="316" y1="128.6797" y2="128.6797"/><text fill="#000000" font-family="Calibri" font-size="13" lengthAdjust="spacingAndGlyphs" textLength="225" x="83" y="121.6138">adapter_call (request : JSON string)</text><polygon fill="#A80036" points="868,157.8125,878,161.8125,868,165.8125" style="stroke: #A80036; stroke-width: 1.0;"/><line style="stroke: #A80036; stroke-width: 1.0;" x1="332" x2="874" y1="161.8125" y2="161.8125"/><text fill="#000000" font-family="Calibri" font-size="13" lengthAdjust="spacingAndGlyphs" textLength="190" x="341" y="154.7466">decode(request : JSON string)</text><line style="stroke: #A80036; stroke-width: 1.0;" x1="332" x2="342" y1="194.9453" y2="190.9453"/><line style="stroke: #A80036; stroke-width: 1.0;" x1="332" x2="342" y1="194.9453" y2="198.9453"/><line style="stroke: #A80036; stroke-width: 1.0; stroke-dasharray: 2.0,2.0;" x1="332" x2="884" y1="194.9453" y2="194.9453"/><text fill="#000000" font-family="Calibri" font-size="13" lengthAdjust="spacingAndGlyphs" textLength="93" x="351" y="187.8794">request : table</text><polygon fill="#A80036" points="929,224.0781,939,228.0781,929,232.0781" style="stroke: #A80036; stroke-width: 1.0;"/><line style="stroke: #A80036; stroke-width: 1.0;" x1="332" x2="935" y1="228.0781" y2="228.0781"/><text fill="#000000" font-family="Calibri" font-size="13" lengthAdjust="spacingAndGlyphs" textLength="100" x="341" y="221.0122">create(request)</text><rect fill="#FEFECE" height="34.2969" style="stroke: #A80036; stroke-width: 1.5;" width="143" x="941" y="202.9453"/><text fill="#000000" font-family="Calibri" font-size="14" lengthAdjust="spacingAndGlyphs" textLength="125" x="950" y="224.9404">AdapterProperties</text><line style="stroke: #A80036; stroke-width: 1.0;" x1="332" x2="342" y1="273.375" y2="269.375"/><line style="stroke: #A80036; stroke-width: 1.0;" x1="332" x2="342" y1="273.375" y2="277.375"/><line style="stroke: #A80036; stroke-width: 1.0; stroke-dasharray: 2.0,2.0;" x1="332" x2="1011.5" y1="273.375" y2="273.375"/><text fill="#000000" font-family="Calibri" font-size="13" lengthAdjust="spacingAndGlyphs" textLength="65" x="351" y="266.3091">properties</text><rect fill="#FFFFFF" height="48.2656" style="stroke: #000000; stroke-width: 2.0;" width="584" x="248" y="281.375"/><polygon fill="#EEEEEE" points="248,281.375,318,281.375,318,292.375,308,302.375,248,302.375,248,281.375" style="stroke: #000000; stroke-width: 2.0;"/><text fill="#000000" font-family="Calibri" font-size="13" font-weight="bold" lengthAdjust="spacingAndGlyphs" textLength="21" x="263" y="297.4419">ref</text><a href="seq_initialize_logging.svg" target="_top" title="seq_initialize_logging.svg" xlink:actuate="onRequest" xlink:href="seq_initialize_logging.svg" xlink:show="new" xlink:title="seq_initialize_logging.svg" xlink:type="simple"><text fill="#0000FF" font-family="Calibri" font-size="13" font-weight="bold" lengthAdjust="spacingAndGlyphs" text-decoration="underline" textLength="122" x="479" y="320.4419">initialize logging</text></a><polygon fill="#A80036" points="766,355.7734,776,359.7734,766,363.7734" style="stroke: #A80036; stroke-width: 1.0;"/><line style="stroke: #A80036; stroke-width: 1.0;" x1="332" x2="772" y1="359.7734" y2="359.7734"/><text fill="#000000" font-family="Calibri" font-size="13" lengthAdjust="spacingAndGlyphs" textLength="183" x="341" y="352.7075">debug(request : JSON string)</text><line style="stroke: #A80036; stroke-width: 1.0;" x1="332" x2="379" y1="417.9063" y2="417.9063"/><line style="stroke: #A80036; stroke-width: 1.0;" x1="379" x2="379" y1="417.9063" y2="430.9063"/><line style="stroke: #A80036; stroke-width: 1.0;" x1="338" x2="379" y1="430.9063" y2="430.9063"/><polygon fill="#A80036" points="348,426.9063,338,430.9063,348,434.9063" style="stroke: #A80036; stroke-width: 1.0;"/><text fill="#000000" font-family="Calibri" font-size="13" lengthAdjust="spacingAndGlyphs" textLength="36" x="346" y="410.8403">xpcall</text><path d="M241,450.9063 L309,450.9063 L309,461.9063 L299,471.9063 L241,471.9063 L241,450.9063 " fill="#EEEEEE" style="stroke: #000000; stroke-width: 1.0;"/><rect fill="none" height="229.9297" style="stroke: #000000; stroke-width: 2.0;" width="496" x="241" y="450.9063"/><text fill="#000000" font-family="Calibri" font-size="13" font-weight="bold" lengthAdjust="spacingAndGlyphs" textLength="19" x="258" y="465.9731">alt</text><polygon fill="#A80036" points="625,493.1719,635,497.1719,625,501.1719" style="stroke: #A80036; stroke-width: 1.0;"/><line style="stroke: #A80036; stroke-width: 1.0;" x1="337" x2="631" y1="497.1719" y2="497.1719"/><a href="seq_create_virtual_schema.svg" target="_top" title="seq_create_virtual_schema.svg" xlink:actuate="onRequest" xlink:href="seq_create_virtual_schema.svg" xlink:show="new" xlink:title="seq_create_virtual_schema.svg" xlink:type="simple"><text fill="#0000FF" font-family="Calibri" font-size="13" lengthAdjust="spacingAndGlyphs" text-decoration="underline" textLength="277" x="346" y="490.106">create_virtual_schema(request, properties)</text></a><line style="stroke: #000000; stroke-width: 1.0; stroke-dasharray: 2.0,2.0;" x1="241" x2="737" y1="506.1719" y2="506.1719"/><polygon fill="#A80036" points="625,528.3047,635,532.3047,625,536.3047" style="stroke: #A80036; stroke-width: 1.0;"/><line style="stroke: #A80036; stroke-width: 1.0;" x1="337" x2="631" y1="532.3047" y2="532.3047"/><a href="seq_get_capabilities.svg" target="_top" title="seq_get_capabilities.svg" xlink:actuate="onRequest" xlink:href="seq_get_capabilities.svg" xlink:show="new" xlink:title="seq_get_capabilities.svg" xlink:type="simple"><text fill="#0000FF" font-family="Calibri" font-size="13" lengthAdjust="spacingAndGlyphs" text-decoration="underline" textLength="231" x="346" y="525.2388">get_capabilities(request, properties)</text></a><line style="stroke: #000000; stroke-width: 1.0; stroke-dasharray: 2.0,2.0;" x1="241" x2="737" y1="541.3047" y2="541.3047"/><polygon fill="#A80036" points="625,563.4375,635,567.4375,625,571.4375" style="stroke: #A80036; stroke-width: 1.0;"/><line style="stroke: #A80036; stroke-width: 1.0;" x1="337" x2="631" y1="567.4375" y2="567.4375"/><a href="seq_set_properties.svg" target="_top" title="seq_set_properties.svg" xlink:actuate="onRequest" xlink:href="seq_set_properties.svg" xlink:show="new" xlink:title="seq_set_properties.svg" xlink:type="simple"><text fill="#0000FF" font-family="Calibri" font-size="13" lengthAdjust="spacingAndGlyphs" text-decoration="underline" textLength="224" x="346" y="560.3716">set_properties(request, properties)</text></a><line style="stroke: #000000; stroke-width: 1.0; stroke-dasharray: 2.0,2.0;" x1="241" x2="737" y1="576.4375" y2="576.4375"/><polygon fill="#A80036" points="625,598.5703,635,602.5703,625,606.5703" style="stroke: #A80036; stroke-width: 1.0;"/><line style="stroke: #A80036; stroke-width: 1.0;" x1="337" x2="631" y1="602.5703" y2="602.5703"/><a href="seq_pushdown.svg" target="_top" title="seq_pushdown.svg" xlink:actuate="onRequest" xlink:href="seq_pushdown.svg" xlink:show="new" xlink:title="seq_pushdown.svg" xlink:type="simple"><text fill="#0000FF" font-family="Calibri" font-size="13" lengthAdjust="spacingAndGlyphs" text-decoration="underline" textLength="203" x="346" y="595.5044">push_down(request, properties)</text></a><line style="stroke: #000000; stroke-width: 1.0; stroke-dasharray: 2.0,2.0;" x1="241" x2="737" y1="611.5703" y2="611.5703"/><polygon fill="#A80036" points="625,633.7031,635,637.7031,625,641.7031" style="stroke: #A80036; stroke-width: 1.0;"/><line style="stroke: #A80036; stroke-width: 1.0;" x1="337" x2="631" y1="637.7031" y2="637.7031"/><a href="seq_refresh.svg" target="_top" title="seq_refresh.svg" xlink:actuate="onRequest" xlink:href="seq_refresh.svg" xlink:show="new" xlink:title="seq_refresh.svg" xlink:type="simple"><text fill="#0000FF" font-family="Calibri" font-size="13" lengthAdjust="spacingAndGlyphs" text-decoration="underline" textLength="177" x="346" y="630.6372">refresh(request, properties)</text></a><line style="stroke: #000000; stroke-width: 1.0; stroke-dasharray: 2.0,2.0;" x1="241" x2="737" y1="646.7031" y2="646.7031"/><polygon fill="#A80036" points="625,668.8359,635,672.8359,625,676.8359" style="stroke: #A80036; stroke-width: 1.0;"/><line style="stroke: #A80036; stroke-width: 1.0;" x1="337" x2="631" y1="672.8359" y2="672.8359"/><a href="seq_drop_virtual_schema.svg" target="_top" title="seq_drop_virtual_schema.svg" xlink:actuate="onRequest" xlink:href="seq_drop_virtual_schema.svg" xlink:show="new" xlink:title="seq_drop_virtual_schema.svg" xlink:type="simple"><text fill="#0000FF" font-family="Calibri" font-size="13" lengthAdjust="spacingAndGlyphs" text-decoration="underline" textLength="265" x="346" y="665.77">drop_virtual_schema(request, properties)</text></a><line style="stroke: #A80036; stroke-width: 1.0;" x1="337" x2="347" y1="744.9688" y2="740.9688"/><line style="stroke: #A80036; stroke-width: 1.0;" x1="337" x2="347" y1="744.9688" y2="748.9688"/><line style="stroke: #A80036; stroke-width: 1.0; stroke-dasharray: 2.0,2.0;" x1="337" x2="641" y1="744.9688" y2="744.9688"/><text fill="#000000" font-family="Calibri" font-size="13" lengthAdjust="spacingAndGlyphs" textLength="59" x="356" y="737.9028">response</text><polygon fill="#A80036" points="868,774.1016,878,778.1016,868,782.1016" style="stroke: #A80036; stroke-width: 1.0;"/><line style="stroke: #A80036; stroke-width: 1.0;" x1="337" x2="874" y1="778.1016" y2="778.1016"/><text fill="#000000" font-family="Calibri" font-size="13" lengthAdjust="spacingAndGlyphs" textLength="106" x="346" y="771.0356">encode(request)</text><line style="stroke: #A80036; stroke-width: 1.0;" x1="337" x2="347" y1="811.2344" y2="807.2344"/><line style="stroke: #A80036; stroke-width: 1.0;" x1="337" x2="347" y1="811.2344" y2="815.2344"/><line style="stroke: #A80036; stroke-width: 1.0; stroke-dasharray: 2.0,2.0;" x1="337" x2="884" y1="811.2344" y2="811.2344"/><text fill="#000000" font-family="Calibri" font-size="13" lengthAdjust="spacingAndGlyphs" textLength="133" x="356" y="804.1685">request : JSON string</text><polygon fill="#A80036" points="766,840.3672,776,844.3672,766,848.3672" style="stroke: #A80036; stroke-width: 1.0;"/><line style="stroke: #A80036; stroke-width: 1.0;" x1="337" x2="772" y1="844.3672" y2="844.3672"/><text fill="#000000" font-family="Calibri" font-size="13" lengthAdjust="spacingAndGlyphs" textLength="197" x="346" y="837.3013">debug (response : JSON string)</text><polygon fill="#A80036" points="771,903.5,781,907.5,771,911.5" style="stroke: #A80036; stroke-width: 1.0;"/><line style="stroke: #A80036; stroke-width: 1.0;" x1="332" x2="777" y1="907.5" y2="907.5"/><text fill="#000000" font-family="Calibri" font-size="13" lengthAdjust="spacingAndGlyphs" textLength="83" x="341" y="900.4341">disconnect ()</text><path d="M13,922.5 L81,922.5 L81,933.5 L71,943.5 L13,943.5 L13,922.5 " fill="#EEEEEE" style="stroke: #000000; stroke-width: 1.0;"/><rect fill="none" height="108.0078" style="stroke: #000000; stroke-width: 2.0;" width="400" x="13" y="922.5"/><text fill="#000000" font-family="Calibri" font-size="13" font-weight="bold" lengthAdjust="spacingAndGlyphs" textLength="19" x="30" y="937.5669">alt</text><text fill="#000000" font-family="Calibri" font-size="11" font-weight="bold" lengthAdjust="spacingAndGlyphs" textLength="61" x="98" y="936.7104">[success]</text><line style="stroke: #A80036; stroke-width: 1.0;" x1="74" x2="84" y1="970.5703" y2="966.5703"/><line style="stroke: #A80036; stroke-width: 1.0;" x1="74" x2="84" y1="970.5703" y2="974.5703"/><line style="stroke: #A80036; stroke-width: 1.0; stroke-dasharray: 2.0,2.0;" x1="74" x2="321" y1="970.5703" y2="970.5703"/><text fill="#000000" font-family="Calibri" font-size="13" lengthAdjust="spacingAndGlyphs" textLength="143" x="93" y="963.5044">response : JSON string</text><line style="stroke: #000000; stroke-width: 1.0; stroke-dasharray: 2.0,2.0;" x1="13" x2="413" y1="979.5703" y2="979.5703"/><text fill="#000000" font-family="Calibri" font-size="11" font-weight="bold" lengthAdjust="spacingAndGlyphs" textLength="41" x="20" y="991.7808">[error]</text><line style="stroke: #A80036; stroke-width: 1.0;" x1="3" x2="13" y1="1022.5078" y2="1018.5078"/><line style="stroke: #A80036; stroke-width: 1.0;" x1="3" x2="13" y1="1022.5078" y2="1026.5078"/><line style="stroke: #A80036; stroke-width: 1.0; stroke-dasharray: 2.0,2.0;" x1="3" x2="321" y1="1022.5078" y2="1022.5078"/><text fill="#000000" font-family="Calibri" font-size="13" lengthAdjust="spacingAndGlyphs" textLength="80" x="22" y="1015.4419">throw (error)</text><!--MD5=[c69116996a0f7314438ef6d206c1965b]
@startuml
hide empty methods
hide empty attributes
skinparam style strictuml
skinparam classAttributeIconSize 0
!pragma horizontalLineBetweenDifferentPackageAllowed

skinparam defaultFontName Calibri

skinparam padding 2

title Dispatch Request

participant entry <<external>>
participant RequestDispatcher
participant VirtualSchemaAdapter <<external>>
participant log <<external>>
participant cjson <<external>>
activate entry

entry - -> RequestDispatcher : adapter_call (request : JSON string)
activate RequestDispatcher

RequestDispatcher -> cjson : decode(request : JSON string)
activate cjson
cjson - ->> RequestDispatcher : request : table
deactivate cjson

create AdapterProperties
RequestDispatcher -> AdapterProperties : create(request)
activate AdapterProperties
AdapterProperties - ->> RequestDispatcher : properties
deactivate AdapterProperties

ref over RequestDispatcher, log : **[[seq_initialize_logging.svg initialize logging]]**

RequestDispatcher -> log : debug(request : JSON string)
activate log
deactivate log

RequestDispatcher -> RequestDispatcher : xpcall
activate RequestDispatcher
alt
    RequestDispatcher -> VirtualSchemaAdapter : [[seq_create_virtual_schema.svg create_virtual_schema(request, properties)]]
    activate VirtualSchemaAdapter
else
    RequestDispatcher -> VirtualSchemaAdapter : [[seq_get_capabilities.svg get_capabilities(request, properties)]]
else
    RequestDispatcher -> VirtualSchemaAdapter : [[seq_set_properties.svg set_properties(request, properties)]]
else
    RequestDispatcher -> VirtualSchemaAdapter : [[seq_pushdown.svg push_down(request, properties)]]
else
    RequestDispatcher -> VirtualSchemaAdapter : [[seq_refresh.svg refresh(request, properties)]]
else
    RequestDispatcher -> VirtualSchemaAdapter : [[seq_drop_virtual_schema.svg drop_virtual_schema(request, properties)]]
end
activate VirtualSchemaAdapter
...
VirtualSchemaAdapter - ->> RequestDispatcher : response
deactivate VirtualSchemaAdapter
RequestDispatcher -> cjson : encode(request)
activate cjson
cjson - ->> RequestDispatcher : request : JSON string
deactivate cjson
RequestDispatcher -> log : debug (response : JSON string)
activate log
deactivate log
deactivate RequestDispatcher

RequestDispatcher -> log : disconnect ()

alt success
    
    RequestDispatcher - ->> entry : response : JSON string
else error
    <<- - RequestDispatcher : throw (error)
end

deactivate RequestDispatcher

@enduml

PlantUML version 1.2020.02(Sun Mar 01 11:22:07 CET 2020)
(GPL source distribution)
Java Runtime: OpenJDK Runtime Environment
JVM: OpenJDK 64-Bit Server VM
Java Version: 11.0.18+10-post-Ubuntu-0ubuntu5
Operating System: Linux
Default Encoding: UTF-8
Language: en
Country: US
--></g></svg>